<?xml version="1.0" encoding="UTF-8" standalone="no" ?>
<!DOCTYPE svg PUBLIC "-//W3C//DTD SVG 1.1//EN" "http://www.w3.org/Graphics/SVG/1.1/DTD/svg11.dtd">
<svg xmlns="http://www.w3.org/2000/svg" xmlns:xlink="http://www.w3.org/1999/xlink" version="1.1" width="1080" height="1080" viewBox="0 0 1080 1080" xml:space="preserve">
<desc>Created with Fabric.js 5.2.4</desc>
<defs>
</defs>
<g transform="matrix(1 0 0 1 540 540)" id="a13e1682-ae3f-4943-b868-843908df7ab5"  >
</g>
<g transform="matrix(1 0 0 1 540 540)" id="a270d539-d915-4b6c-9a9a-09447c7665ec"  >
<rect style="stroke: none; stroke-width: 1; stroke-dasharray: none; stroke-linecap: butt; stroke-dashoffset: 0; stroke-linejoin: miter; stroke-miterlimit: 4; fill: rgb(255,255,255); fill-rule: nonzero; opacity: 1; visibility: hidden;" vector-effect="non-scaling-stroke"  x="-540" y="-540" rx="0" ry="0" width="1080" height="1080" />
</g>
<g transform="matrix(2.04 0 0 2.04 525.41 305.96)"  >
<path style="stroke: none; stroke-width: 1; stroke-dasharray: none; stroke-linecap: butt; stroke-dashoffset: 0; stroke-linejoin: miter; stroke-miterlimit: 4; fill: rgb(239,89,33); fill-rule: nonzero; opacity: 1;" vector-effect="non-scaling-stroke"  transform=" translate(-297.17, -163.33)" d="M 142.992188 257.035156 L 256.800781 61.355469 C 265.796875 45.933594 288.097656 45.984375 297.023438 61.453125 L 398.53125 237.402344 L 428.574219 185.675781 C 432.734375 178.484375 442.433594 176.894531 448.671875 182.382813 C 453.425781 186.566406 454.527344 193.542969 451.296875 198.988281 L 418.324219 254.285156 C 409.445313 269.246094 387.761719 269.164063 378.996094 254.132813 L 276.183594 77.78125 L 165.785156 270.234375 C 162.273438 276.34375 154.574219 278.605469 148.316406 275.367188 C 141.621094 271.90625 139.191406 263.542969 142.992188 257.035156" stroke-linecap="round" />
</g>
<g transform="matrix(2.04 0 0 2.04 1009.17 32.85)"  >
<path style="stroke: none; stroke-width: 1; stroke-dasharray: none; stroke-linecap: butt; stroke-dashoffset: 0; stroke-linejoin: miter; stroke-miterlimit: 4; fill: rgb(239,89,33); fill-rule: nonzero; opacity: 1;" vector-effect="non-scaling-stroke"  transform=" translate(-533.44, -29.57)" d="M 533.441406 42.132813 C 526.503906 42.132813 520.878906 36.507813 520.878906 29.570313 C 520.878906 22.636719 526.503906 17.011719 533.441406 17.011719 C 540.375 17.011719 546 22.636719 546 29.570313 C 546 36.507813 540.375 42.132813 533.441406 42.132813 M 533.441406 -0.00390625 C 517.105469 -0.00390625 503.867188 13.238281 503.867188 29.570313 C 503.867188 45.90625 517.105469 59.144531 533.441406 59.144531 C 549.773438 59.144531 563.015625 45.90625 563.015625 29.570313 C 563.015625 13.238281 549.773438 -0.00390625 533.441406 -0.00390625" stroke-linecap="round" />
</g>
<g transform="matrix(2.04 0 0 2.04 937.05 175.2)"  >
<path style="stroke: none; stroke-width: 1; stroke-dasharray: none; stroke-linecap: butt; stroke-dashoffset: 0; stroke-linejoin: miter; stroke-miterlimit: 4; fill: rgb(239,89,33); fill-rule: nonzero; opacity: 1;" vector-effect="non-scaling-stroke"  transform=" translate(-498.19, -99.25)" d="M 512.777344 41.320313 L 460.921875 130.449219 L 475.507813 157.1875 L 535.464844 51.855469 Z M 512.777344 41.320313" stroke-linecap="round" />
</g>
<g transform="matrix(2.04 0 0 2.04 822.52 306.74)"  >
<path style="stroke: none; stroke-width: 1; stroke-dasharray: none; stroke-linecap: butt; stroke-dashoffset: 0; stroke-linejoin: miter; stroke-miterlimit: 4; fill: rgb(71,237,168); fill-rule: nonzero; opacity: 1;" vector-effect="non-scaling-stroke"  transform=" translate(-442.33, -163.71)" d="M 346.199219 123.367188 L 381.660156 62.683594 C 391.03125 46.585938 414.257813 46.515625 423.726563 62.554688 L 538.378906 257.464844 C 542.09375 263.757813 539.820313 271.878906 533.378906 275.328125 C 527.300781 278.585938 519.738281 276.464844 516.238281 270.523438 L 402.582031 76.972656 L 367.933594 136.042969 C 364.304688 142.257813 356.210938 144.164063 350.1875 140.226563 C 344.585938 136.5625 342.832031 129.152344 346.199219 123.367188" stroke-linecap="round" />
</g>
<g transform="matrix(2.04 0 0 2.04 469.03 558.08)"  >
<path style="stroke: none; stroke-width: 1; stroke-dasharray: none; stroke-linecap: butt; stroke-dashoffset: 0; stroke-linejoin: miter; stroke-miterlimit: 4; fill: rgb(71,237,168); fill-rule: nonzero; opacity: 1;" vector-effect="non-scaling-stroke"  transform=" translate(-269.3, -286.42)" d="M 269.296875 298.980469 C 262.359375 298.980469 256.738281 293.359375 256.738281 286.421875 C 256.738281 279.488281 262.359375 273.863281 269.296875 273.863281 C 276.230469 273.863281 281.855469 279.488281 281.855469 286.421875 C 281.855469 293.359375 276.230469 298.980469 269.296875 298.980469 M 269.296875 256.847656 C 252.960938 256.847656 239.722656 270.089844 239.722656 286.421875 C 239.722656 302.757813 252.960938 315.996094 269.296875 315.996094 C 285.632813 315.996094 298.871094 302.757813 298.871094 286.421875 C 298.871094 270.089844 285.632813 256.847656 269.296875 256.847656" stroke-linecap="round" />
</g>
<g transform="matrix(2.04 0 0 2.04 533.28 434.38)"  >
<path style="stroke: none; stroke-width: 1; stroke-dasharray: none; stroke-linecap: butt; stroke-dashoffset: 0; stroke-linejoin: miter; stroke-miterlimit: 4; fill: rgb(71,237,168); fill-rule: nonzero; opacity: 1;" vector-effect="non-scaling-stroke"  transform=" translate(-300.72, -225.96)" d="M 268.078125 260.089844 L 308.621094 188.007813 C 312.199219 181.703125 320.179688 179.449219 326.523438 182.949219 C 333.101563 186.578125 335.34375 194.945313 331.460938 201.378906 L 289.957031 270.625" stroke-linecap="round" />
</g>
<g transform="matrix(2.04 0 0 2.04 26.74 781.64)"  >
<path style="stroke: none; stroke-width: 1; stroke-dasharray: none; stroke-linecap: butt; stroke-dashoffset: 0; stroke-linejoin: miter; stroke-miterlimit: 4; fill: rgb(255,255,255); fill-rule: nonzero; opacity: 1;" vector-effect="non-scaling-stroke"  transform=" translate(-53.04, 40.55)" d="M 9.390625 0 L 23.140625 0 L 23.140625 -67.359375 L 23.375 -67.359375 L 48 0 L 58.078125 0 L 82.71875 -67.359375 L 82.9375 -67.359375 L 82.9375 0 L 96.6875 0 L 96.6875 -81.109375 L 74.921875 -81.109375 L 53.046875 -24.28125 L 31.390625 -81.109375 L 9.390625 -81.109375 Z M 9.390625 0" stroke-linecap="round" />
</g>
<g transform="matrix(2.04 0 0 2.04 195.27 808.41)"  >
<path style="stroke: none; stroke-width: 1; stroke-dasharray: none; stroke-linecap: butt; stroke-dashoffset: 0; stroke-linejoin: miter; stroke-miterlimit: 4; fill: rgb(255,255,255); fill-rule: nonzero; opacity: 1;" vector-effect="non-scaling-stroke"  transform=" translate(-29.33, 27.49)" d="M 42.15625 0 L 54.53125 0 L 54.53125 -31.625 C 54.53125 -39.40625 54.53125 -56.359375 31.046875 -56.359375 C 22.34375 -56.359375 13.75 -53.734375 7.671875 -47.546875 L 14.890625 -40.328125 C 18.5625 -43.765625 23.828125 -46.046875 29.5625 -46.046875 C 36.890625 -46.046875 42.15625 -42.5 42.15625 -35.75 L 42.15625 -34.25 L 38.71875 -34.25 C 24.96875 -34.25 4.125 -33 4.125 -15.125 C 4.125 -4.234375 13.984375 1.375 24.171875 1.375 C 31.5 1.375 37.921875 -1.375 41.8125 -7.5625 L 42.15625 -7.5625 Z M 41.359375 -21.53125 C 41.359375 -13.859375 36.890625 -8.9375 27.5 -8.9375 C 23.03125 -8.9375 17.875 -11.109375 17.875 -16.15625 C 17.875 -24.0625 30.9375 -24.625 38.5 -24.625 L 41.359375 -24.625 Z M 41.359375 -21.53125" stroke-linecap="round" />
</g>
<g transform="matrix(2.04 0 0 2.04 322.37 808.41)"  >
<path style="stroke: none; stroke-width: 1; stroke-dasharray: none; stroke-linecap: butt; stroke-dashoffset: 0; stroke-linejoin: miter; stroke-miterlimit: 4; fill: rgb(255,255,255); fill-rule: nonzero; opacity: 1;" vector-effect="non-scaling-stroke"  transform=" translate(-29.96, 27.49)" d="M 54.875 -48 C 49.609375 -53.84375 41.9375 -56.359375 34.9375 -56.359375 C 18.328125 -56.359375 5.046875 -44.796875 5.046875 -27.5 C 5.046875 -10.203125 18.328125 1.375 34.9375 1.375 C 39.75 1.375 49.140625 -0.6875 54.765625 -6.296875 L 45.59375 -16.15625 C 43.078125 -12.828125 39.1875 -11 34.9375 -11 C 24.859375 -11 18.78125 -18.90625 18.78125 -27.5 C 18.78125 -36.09375 24.859375 -43.984375 34.9375 -43.984375 C 38.609375 -43.984375 42.15625 -41.8125 45.359375 -38.5 Z M 54.875 -48" stroke-linecap="round" />
</g>
<g transform="matrix(2.04 0 0 2.04 425.97 807.01)"  >
<path style="stroke: none; stroke-width: 1; stroke-dasharray: none; stroke-linecap: butt; stroke-dashoffset: 0; stroke-linejoin: miter; stroke-miterlimit: 4; fill: rgb(255,255,255); fill-rule: nonzero; opacity: 1;" vector-effect="non-scaling-stroke"  transform=" translate(-25.38, 28.18)" d="M 7.796875 0 L 21.53125 0 L 21.53125 -29.4375 C 21.53125 -32.421875 23.375 -43.296875 36.3125 -43.296875 C 38.5 -43.296875 40.671875 -42.84375 42.96875 -42.28125 L 42.96875 -55.5625 C 41.359375 -56.015625 39.75 -56.359375 38.03125 -56.359375 C 30.8125 -56.359375 24.75 -52.578125 21.765625 -46.28125 L 21.53125 -46.28125 L 21.53125 -54.984375 L 7.796875 -54.984375 Z M 7.796875 0" stroke-linecap="round" />
</g>
<g transform="matrix(2.04 0 0 2.04 539.85 808.41)"  >
<path style="stroke: none; stroke-width: 1; stroke-dasharray: none; stroke-linecap: butt; stroke-dashoffset: 0; stroke-linejoin: miter; stroke-miterlimit: 4; fill: rgb(255,255,255); fill-rule: nonzero; opacity: 1;" vector-effect="non-scaling-stroke"  transform=" translate(-34.95, 27.49)" d="M 5.046875 -27.5 C 5.046875 -10.203125 18.328125 1.375 34.9375 1.375 C 51.546875 1.375 64.84375 -10.203125 64.84375 -27.5 C 64.84375 -44.796875 51.546875 -56.359375 34.9375 -56.359375 C 18.328125 -56.359375 5.046875 -44.796875 5.046875 -27.5 Z M 18.78125 -27.5 C 18.78125 -36.09375 24.859375 -43.984375 34.9375 -43.984375 C 45.015625 -43.984375 51.09375 -36.09375 51.09375 -27.5 C 51.09375 -18.90625 45.015625 -11 34.9375 -11 C 24.859375 -11 18.78125 -18.90625 18.78125 -27.5 Z M 18.78125 -27.5" stroke-linecap="round" />
</g>
<g transform="matrix(2.04 0 0 2.04 680.43 777.4)"  >
<path style="stroke: none; stroke-width: 1; stroke-dasharray: none; stroke-linecap: butt; stroke-dashoffset: 0; stroke-linejoin: miter; stroke-miterlimit: 4; fill: rgb(255,255,255); fill-rule: nonzero; opacity: 1;" vector-effect="non-scaling-stroke"  transform=" translate(-37.47, 42.62)" d="M 7.796875 0 L 20.84375 0 L 20.84375 -8.25 L 21.078125 -8.25 C 25.09375 -1.609375 32.3125 1.375 39.984375 1.375 C 56.9375 1.375 67.140625 -11.234375 67.140625 -27.5 C 67.140625 -43.765625 56.25 -56.359375 40.5625 -56.359375 C 30.25 -56.359375 24.75 -51.546875 21.875 -48 L 21.53125 -48 L 21.53125 -86.609375 L 7.796875 -86.609375 Z M 53.390625 -27.5 C 53.390625 -18.90625 47.3125 -11 37.234375 -11 C 27.15625 -11 21.078125 -18.90625 21.078125 -27.5 C 21.078125 -36.09375 27.15625 -43.984375 37.234375 -43.984375 C 47.3125 -43.984375 53.390625 -36.09375 53.390625 -27.5 Z M 53.390625 -27.5" stroke-linecap="round" />
</g>
<g transform="matrix(2.04 0 0 2.04 822.86 808.41)"  >
<path style="stroke: none; stroke-width: 1; stroke-dasharray: none; stroke-linecap: butt; stroke-dashoffset: 0; stroke-linejoin: miter; stroke-miterlimit: 4; fill: rgb(255,255,255); fill-rule: nonzero; opacity: 1;" vector-effect="non-scaling-stroke"  transform=" translate(-34.95, 27.49)" d="M 5.046875 -27.5 C 5.046875 -10.203125 18.328125 1.375 34.9375 1.375 C 51.546875 1.375 64.84375 -10.203125 64.84375 -27.5 C 64.84375 -44.796875 51.546875 -56.359375 34.9375 -56.359375 C 18.328125 -56.359375 5.046875 -44.796875 5.046875 -27.5 Z M 18.78125 -27.5 C 18.78125 -36.09375 24.859375 -43.984375 34.9375 -43.984375 C 45.015625 -43.984375 51.09375 -36.09375 51.09375 -27.5 C 51.09375 -18.90625 45.015625 -11 34.9375 -11 C 24.859375 -11 18.78125 -18.90625 18.78125 -27.5 Z M 18.78125 -27.5" stroke-linecap="round" />
</g>
<g transform="matrix(2.04 0 0 2.04 961.57 809.82)"  >
<path style="stroke: none; stroke-width: 1; stroke-dasharray: none; stroke-linecap: butt; stroke-dashoffset: 0; stroke-linejoin: miter; stroke-miterlimit: 4; fill: rgb(255,255,255); fill-rule: nonzero; opacity: 1;" vector-effect="non-scaling-stroke"  transform=" translate(-32.88, 26.8)" d="M 57.96875 -54.984375 L 44.21875 -54.984375 L 44.21875 -24.96875 C 44.21875 -17.640625 40.671875 -11 31.625 -11 C 22 -11 21.53125 -21.078125 21.53125 -27.15625 L 21.53125 -54.984375 L 7.796875 -54.984375 L 7.796875 -20.28125 C 7.796875 -9.046875 13.0625 1.375 27.84375 1.375 C 37 1.375 42.15625 -3.328125 44.671875 -8.828125 L 44.90625 -8.828125 L 44.90625 0 L 57.96875 0 Z M 57.96875 -54.984375" stroke-linecap="round" />
</g>
<g transform="matrix(2.04 0 0 2.04 1080.74 807.01)"  >
<path style="stroke: none; stroke-width: 1; stroke-dasharray: none; stroke-linecap: butt; stroke-dashoffset: 0; stroke-linejoin: miter; stroke-miterlimit: 4; fill: rgb(255,255,255); fill-rule: nonzero; opacity: 1;" vector-effect="non-scaling-stroke"  transform=" translate(-25.38, 28.18)" d="M 7.796875 0 L 21.53125 0 L 21.53125 -29.4375 C 21.53125 -32.421875 23.375 -43.296875 36.3125 -43.296875 C 38.5 -43.296875 40.671875 -42.84375 42.96875 -42.28125 L 42.96875 -55.5625 C 41.359375 -56.015625 39.75 -56.359375 38.03125 -56.359375 C 30.8125 -56.359375 24.75 -52.578125 21.765625 -46.28125 L 21.53125 -46.28125 L 21.53125 -54.984375 L 7.796875 -54.984375 Z M 7.796875 0" stroke-linecap="round" />
</g>
<g transform="matrix(2.04 0 0 2.04 1171.93 808.41)"  >
<path style="stroke: none; stroke-width: 1; stroke-dasharray: none; stroke-linecap: butt; stroke-dashoffset: 0; stroke-linejoin: miter; stroke-miterlimit: 4; fill: rgb(255,255,255); fill-rule: nonzero; opacity: 1;" vector-effect="non-scaling-stroke"  transform=" translate(-25.43, 27.49)" d="M 46.28125 -48 C 41.8125 -54.078125 34.03125 -56.359375 26.6875 -56.359375 C 15.578125 -56.359375 4.578125 -50.859375 4.578125 -38.609375 C 4.578125 -17.640625 34.25 -26.578125 34.25 -15.234375 C 34.25 -10.890625 29.09375 -8.9375 25.09375 -8.9375 C 19.25 -8.9375 15.578125 -11.796875 12.03125 -15.6875 L 2.859375 -7.109375 C 8.484375 -0.796875 15.8125 1.375 24.28125 1.375 C 35.515625 1.375 48 -3.203125 48 -16.265625 C 48 -37.6875 18.328125 -29.671875 18.328125 -39.53125 C 18.328125 -43.640625 22.6875 -45.359375 26.34375 -45.359375 C 31.046875 -45.359375 34.484375 -43.421875 37.125 -39.75 Z M 46.28125 -48" stroke-linecap="round" />
</g>
<g transform="matrix(2.04 0 0 2.04 1291.17 808.41)"  >
<path style="stroke: none; stroke-width: 1; stroke-dasharray: none; stroke-linecap: butt; stroke-dashoffset: 0; stroke-linejoin: miter; stroke-miterlimit: 4; fill: rgb(255,255,255); fill-rule: nonzero; opacity: 1;" vector-effect="non-scaling-stroke"  transform=" translate(-32.88, 27.49)" d="M 60.71875 -22.6875 L 60.71875 -26.46875 C 60.71875 -45.59375 50.296875 -56.359375 34.9375 -56.359375 C 18.328125 -56.359375 5.046875 -44.796875 5.046875 -27.5 C 5.046875 -10.203125 18.328125 1.375 34.9375 1.375 C 43.640625 1.375 51.78125 -1.71875 58.203125 -9.625 L 48.34375 -17.0625 C 44.90625 -12.828125 40.4375 -9.625 33.5625 -9.625 C 25.890625 -9.625 19.703125 -14.546875 18.78125 -22.6875 Z M 18.78125 -33 C 19.8125 -40.90625 24.859375 -46.046875 33 -46.046875 C 41.59375 -46.046875 46.859375 -41.015625 46.96875 -33 Z M 18.78125 -33" stroke-linecap="round" />
</g>
</svg>