<?xml version="1.0" encoding="UTF-8"?>
<svg xmlns="http://www.w3.org/2000/svg" xmlns:xlink="http://www.w3.org/1999/xlink" width="704.2pt" viewBox="0 0 704.2 320" version="1.1">

<g id="surface1">
<path style=" stroke:none;fill-rule:nonzero;fill:rgb(94.099426%,35.299683%,13.699341%);fill-opacity:1;" d="M 142.992188 257.035156 L 256.800781 61.355469 C 265.796875 45.933594 288.097656 45.984375 297.023438 61.453125 L 398.53125 237.402344 L 428.574219 185.675781 C 432.734375 178.484375 442.433594 176.894531 448.671875 182.382813 C 453.425781 186.566406 454.527344 193.542969 451.296875 198.988281 L 418.324219 254.285156 C 409.445313 269.246094 387.761719 269.164063 378.996094 254.132813 L 276.183594 77.78125 L 165.785156 270.234375 C 162.273438 276.34375 154.574219 278.605469 148.316406 275.367188 C 141.621094 271.90625 139.191406 263.542969 142.992188 257.035156 "/>
<path style=" stroke:none;fill-rule:nonzero;fill:rgb(94.099426%,35.299683%,13.699341%);fill-opacity:1;" d="M 533.441406 42.132813 C 526.503906 42.132813 520.878906 36.507813 520.878906 29.570313 C 520.878906 22.636719 526.503906 17.011719 533.441406 17.011719 C 540.375 17.011719 546 22.636719 546 29.570313 C 546 36.507813 540.375 42.132813 533.441406 42.132813 M 533.441406 -0.00390625 C 517.105469 -0.00390625 503.867188 13.238281 503.867188 29.570313 C 503.867188 45.90625 517.105469 59.144531 533.441406 59.144531 C 549.773438 59.144531 563.015625 45.90625 563.015625 29.570313 C 563.015625 13.238281 549.773438 -0.00390625 533.441406 -0.00390625 "/>
<path style=" stroke:none;fill-rule:nonzero;fill:rgb(94.099426%,35.299683%,13.699341%);fill-opacity:1;" d="M 512.777344 41.320313 L 460.921875 130.449219 L 475.507813 157.1875 L 535.464844 51.855469 Z M 512.777344 41.320313 "/>
<path style=" stroke:none;fill-rule:nonzero;fill:rgb(28.199768%,93.299866%,66.699219%);fill-opacity:1;" d="M 346.199219 123.367188 L 381.660156 62.683594 C 391.03125 46.585938 414.257813 46.515625 423.726563 62.554688 L 538.378906 257.464844 C 542.09375 263.757813 539.820313 271.878906 533.378906 275.328125 C 527.300781 278.585938 519.738281 276.464844 516.238281 270.523438 L 402.582031 76.972656 L 367.933594 136.042969 C 364.304688 142.257813 356.210938 144.164063 350.1875 140.226563 C 344.585938 136.5625 342.832031 129.152344 346.199219 123.367188 "/>
<path style=" stroke:none;fill-rule:nonzero;fill:rgb(28.199768%,93.299866%,66.699219%);fill-opacity:1;" d="M 269.296875 298.980469 C 262.359375 298.980469 256.738281 293.359375 256.738281 286.421875 C 256.738281 279.488281 262.359375 273.863281 269.296875 273.863281 C 276.230469 273.863281 281.855469 279.488281 281.855469 286.421875 C 281.855469 293.359375 276.230469 298.980469 269.296875 298.980469 M 269.296875 256.847656 C 252.960938 256.847656 239.722656 270.089844 239.722656 286.421875 C 239.722656 302.757813 252.960938 315.996094 269.296875 315.996094 C 285.632813 315.996094 298.871094 302.757813 298.871094 286.421875 C 298.871094 270.089844 285.632813 256.847656 269.296875 256.847656 "/>
<path style=" stroke:none;fill-rule:nonzero;fill:rgb(28.199768%,93.299866%,66.699219%);fill-opacity:1;" d="M 268.078125 260.089844 L 308.621094 188.007813 C 312.199219 181.703125 320.179688 179.449219 326.523438 182.949219 C 333.101563 186.578125 335.34375 194.945313 331.460938 201.378906 L 289.957031 270.625 "/>
<g style="fill:rgb(9.399414%,16.099548%,22.399902%);fill-opacity:1;">
  <use xlink:href="#glyph0-1" x="-0.000390625" y="436.3298"/>
  <use xlink:href="#glyph0-2" x="106.084947" y="436.3298"/>
  <use xlink:href="#glyph0-3" x="167.605278" y="436.3298"/>
  <use xlink:href="#glyph0-4" x="222.824644" y="436.3298"/>
</g>
<g style="fill:rgb(9.399414%,16.099548%,22.399902%);fill-opacity:1;">
  <use xlink:href="#glyph0-5" x="265.327517" y="436.3298"/>
  <use xlink:href="#glyph0-6" x="335.210947" y="436.3298"/>
  <use xlink:href="#glyph0-5" x="407.385637" y="436.3298"/>
  <use xlink:href="#glyph0-7" x="477.269067" y="436.3298"/>
  <use xlink:href="#glyph0-4" x="543.028229" y="436.3298"/>
  <use xlink:href="#glyph0-8" x="587.593236" y="436.3298"/>
  <use xlink:href="#glyph0-9" x="638.459208" y="436.3298"/>
</g>
</g>
</svg>
